<?xml version="1.0" encoding="utf-8"?>
<!-- Generator: Adobe Illustrator 25.4.1, SVG Export Plug-In . SVG Version: 6.00 Build 0)  -->
<svg version="1.1" id="图层_1" xmlns="http://www.w3.org/2000/svg" xmlns:xlink="http://www.w3.org/1999/xlink" x="0px" y="0px"
	 viewBox="0 0 1280 720" style="enable-background:new 0 0 1280 720;" xml:space="preserve">
<style type="text/css">
	.st0{fill:#7524F9;}
	.st1{fill:#FFFFFF;}
	.st2{fill-rule:evenodd;clip-rule:evenodd;fill:#FFFFFF;}
	.st3{fill:none;}
	.st4{fill:#171728;}
	.st5{fill-rule:evenodd;clip-rule:evenodd;fill:#171728;}
	.st6{fill-rule:evenodd;clip-rule:evenodd;fill:#7524F9;}
</style>
<rect x="-7.7" y="-10.2" class="st0" width="1295.3" height="736.1"/>
<g>
	<g>
		<path class="st1" d="M579.5,308.8c3.3,3.3,7.3,4.9,12.1,4.9s8.9-1.6,12.1-4.9c3.3-3.4,4.9-7.4,4.9-12.1c0-4.8-1.6-8.9-4.9-12.1
			c-3.3-3.4-7.3-5.1-12.1-5.1s-8.9,1.7-12.1,5.1c-3.3,3.3-4.9,7.3-4.9,12.1C574.6,301.2,576.3,305.4,579.5,308.8"/>
		<path class="st1" d="M576.6,325.2c-0.6,0.6-0.8,1.3-0.8,2.3v97.8c0,1,0.3,1.8,0.8,2.3c0.6,0.6,1.3,0.8,2.3,0.8h25.5
			c1,0,1.8-0.3,2.3-0.8c0.6-0.6,0.9-1.3,0.9-2.3v-97.8c0-1-0.3-1.8-0.9-2.3c-0.6-0.6-1.3-0.8-2.3-0.8h-25.5
			C577.9,324.5,577.1,324.7,576.6,325.2"/>
		<path class="st2" d="M847,354.2c4-3.1,8.7-4.7,14.2-4.7c5.4,0,10,1.6,13.8,4.7c3.8,3,6.2,7.4,7.2,13.2h-42.9
			C840.5,361.5,843.1,357.1,847,354.2 M909.1,384.6c1-2.1,1.5-5.5,1.5-10.2c0-9.4-2.1-18-6.2-25.9c-4.1-7.9-9.9-14.2-17.4-18.9
			c-7.5-4.7-16.2-7-25.9-7c-9.9,0-18.9,2.4-27,7.2c-8.1,4.7-14.5,11.1-19.1,19.3c-4.5,8.2-6.8,17.3-6.8,27.2c0,9.9,2.3,19,7,27.2
			s11.2,14.7,19.6,19.6c8.5,4.8,18.1,7.2,28.7,7.2c7.5,0,14.5-1.3,21-4c6.7-2.8,12.5-6.8,17.6-11.9c0.8-0.8,1.3-1.7,1.3-2.5
			s-0.3-1.6-0.9-2.1l-11.1-10.6c-0.9-0.9-1.6-1.3-2.3-1.3c-0.9,0-1.6,0.3-2.3,0.9c-3.5,2.3-6.9,3.9-10.2,4.9
			c-3.1,0.8-6.4,1.3-10,1.3c-7.1,0-13-1.4-17.6-4.2c-4.5-3-7.6-7.3-9.1-13H903C906.1,387.5,908.1,386.5,909.1,384.6"/>
		<path class="st2" d="M971.8,349.5c-5.5,0-10.3,1.6-14.2,4.7c-4,3-6.5,7.4-7.6,13.2h42.9c-1-5.8-3.4-10.2-7.2-13.2
			C981.8,351,977.2,349.5,971.8,349.5 M1021.1,374.4c0,4.7-0.5,8.1-1.5,10.2c-1,2-3,3-6.2,3h-63.1c1.6,5.7,4.6,10,9.1,13
			c4.7,2.8,10.6,4.2,17.6,4.2c3.6,0,6.9-0.4,10-1.3c3.3-1,6.7-2.6,10.2-4.9c0.7-0.6,1.5-0.9,2.3-0.9c0.7,0,1.5,0.4,2.3,1.3
			l11.1,10.6c0.6,0.6,0.9,1.3,0.9,2.1s-0.4,1.7-1.3,2.5c-5.1,5.1-11,9.1-17.6,11.9c-6.5,2.7-13.5,4-21,4c-10.6,0-20.2-2.4-28.7-7.2
			c-8.4-4.8-14.9-11.3-19.6-19.6c-4.7-8.2-7-17.3-7-27.2c0-9.9,2.3-19,6.8-27.2c4.7-8.2,11.1-14.7,19.1-19.3
			c8.1-4.8,17.1-7.2,27-7.2c9.8,0,18.4,2.3,25.9,7s13.3,11,17.4,18.9C1019,356.2,1021.1,365,1021.1,374.4"/>
		<path class="st2" d="M1101.1,394.2c-4.4,4.5-10,6.8-16.8,6.8c-6.9,0-12.6-2.3-17-6.8c-4.3-4.5-6.4-10.4-6.4-17.6
			c0-7.1,2.1-13,6.4-17.9c4.4-4.8,10.1-7.2,17-7.2c6.8,0,12.4,2.3,16.8,7c4.5,4.7,6.8,10.7,6.8,18.1
			C1108,383.9,1105.7,389.8,1101.1,394.2 M1113.9,329.7c-7.7-4.8-16.2-7.2-25.7-7.2c-12.2,0-22.2,5-30,14.9l-1.1-9.6
			c-0.3-2.1-1.3-3.2-3.2-3.2h-21.7c-1,0-1.8,0.3-2.3,0.8c-0.6,0.6-0.8,1.3-0.8,2.3V466c0,1,0.3,1.8,0.8,2.3c0.6,0.6,1.3,0.9,2.3,0.9
			h25.5c1,0,1.8-0.3,2.3-0.9c0.6-0.6,0.8-1.4,0.8-2.3v-46.6c7,7.2,16,10.8,27.2,10.8c9.5,0,18.1-2.3,25.7-7
			c7.8-4.8,13.8-11.3,18.1-19.4c4.4-8.2,6.6-17.2,6.6-27c0-10.1-2.2-19.2-6.6-27.4C1127.7,341.1,1121.7,334.5,1113.9,329.7"/>
		<path class="st1" d="M684.7,324.5c1,0,1.8,0.3,2.3,0.8c0.6,0.6,0.8,1.3,0.8,2.3V347c0,1-0.3,1.8-0.8,2.3c-0.6,0.6-1.3,0.9-2.3,0.9
			h-17v75.3c0,1-0.3,1.8-0.9,2.3c-0.6,0.6-1.3,0.9-2.3,0.9H639c-1,0-1.8-0.3-2.3-0.9c-0.6-0.6-0.9-1.3-0.9-2.3v-75.3h-17
			c-1,0-1.8-0.3-2.3-0.9c-0.6-0.6-0.9-1.3-0.9-2.3v-19.3c0-1,0.3-1.8,0.9-2.3c0.6-0.6,1.4-0.8,2.3-0.8h17v-28.7c0-1,0.3-1.8,0.9-2.3
			c0.6-0.6,1.3-0.8,2.3-0.8h25.5c1,0,1.8,0.3,2.3,0.8c0.6,0.6,0.9,1.3,0.9,2.3v28.7h17V324.5z"/>
		<path class="st2" d="M513.4,399.5c6.5,0,11.7-1.5,15.5-4.5s5.7-7.4,5.7-13.4c0-5.8-1.9-10.1-5.7-12.8c-3.8-2.8-9-4.3-15.5-4.3
			h-23.8v34.9L513.4,399.5L513.4,399.5z M525.7,322.5c0-9.1-5.6-13.6-16.8-13.6h-19.3v28.5h19.3c5.2,0,9.4-1.2,12.3-3.6
			C524.2,331.2,525.7,327.5,525.7,322.5 M538.4,349.1c7.9,2.1,14.7,6.4,20.4,13c5.8,6.5,8.7,14.4,8.7,23.6
			c0,14.3-4.6,25.1-13.8,32.3c-9.1,7.1-23,10.6-41.7,10.6h-52.3c-1,0-1.8-0.3-2.3-0.8c-0.6-0.6-0.8-1.3-0.8-2.3V283
			c0-1,0.3-1.8,0.8-2.3c0.6-0.6,1.3-0.9,2.3-0.9h52.1c9.4,0,17.4,1.7,24,5.1c6.8,3.4,11.9,8,15.3,13.8c3.5,5.8,5.3,12.3,5.3,19.6
			c0,7.4-1.8,13.8-5.3,19.3C547.8,343.2,543.5,347,538.4,349.1"/>
		<path class="st1" d="M819.8,427.5c0-0.7-0.2-1.3-0.6-1.9L760,345.8l57.1-61.5c0.7-0.7,1.1-1.4,1.1-1.9c0-0.6-0.3-1-0.9-1.3
			c-0.4-0.4-1.1-0.6-1.9-0.6h-28.9c-1.4,0-2.6,0.6-3.6,1.7l-54.8,59.4v-57.9c0-1-0.3-1.8-0.9-2.3c-0.6-0.6-1.3-0.9-2.3-0.9h-25.5
			c-1,0-1.8,0.3-2.3,0.9c-0.6,0.6-0.8,1.3-0.8,2.3v142.6c0,1,0.3,1.8,0.8,2.3c0.6,0.6,1.3,0.8,2.3,0.8H725c1,0,1.8-0.3,2.3-0.8
			c0.6-0.6,0.9-1.3,0.9-2.3v-46l12.5-13.6l45.4,60.9c0.8,1.3,2.1,1.9,3.8,1.9h27.4C819,429.5,819.8,428.8,819.8,427.5"/>
	</g>
	<path class="st2" d="M392.8,290.4v14.5c0,2.9-1.5,5.5-4,6.9L342,338.9l41.9,24.1c5.6,3.2,9,9.2,9,15.6v38.8c0,6.4-3.4,12.4-9,15.6
		l-110.1,63.2c-5.6,3.2-12.4,3.2-18,0l-36.1-20.8c-2.7-1.5-2.7-5.4,0-6.9l119-68.5c1.3-0.8,1.3-2.7,0-3.5L294.4,371
		c-2.5-1.4-5.5-1.4-8,0l-120.9,69.7c-1.8,1.1-4.1,1.1-6,0l-13.7-7.8c-5.6-3.2-9.1-9.2-9.1-15.6v-15.9c0-2.1,1.1-4.1,3-5.2L313,296.6
		c1.3-0.8,1.3-2.7,0-3.5l-44.3-25.6c-2.5-1.4-5.5-1.4-8,0l-118.1,67.9c-2.7,1.5-6-0.4-6-3.5v-41.6c0-6.4,3.4-12.4,9-15.6l110.1-63.2
		c5.6-3.2,12.4-3.2,18,0l109.9,63.4C389.4,278.1,392.8,284,392.8,290.4z"/>
</g>
<rect x="-2.3" y="-6.2" class="st3" width="1280" height="720"/>
<rect x="-9.9" y="1038.4" class="st1" width="1295.3" height="736.1"/>
<rect x="1514.9" y="2196.4" class="st1" width="1024" height="1024"/>
<rect x="1509.3" y="-7.3" class="st0" width="1295.3" height="736.1"/>
<g>
	<g>
		<path class="st1" d="M2136.3,274.9c2.7,2.7,5.9,4,9.9,4c3.9,0,7.2-1.3,9.9-4c2.7-2.8,4-6.1,4-9.9c0-3.9-1.3-7.2-4-9.9
			c-2.7-2.8-6-4.2-9.9-4.2s-7.2,1.4-9.9,4.2c-2.7,2.7-4,6-4,9.9C2132.3,268.8,2133.6,272.1,2136.3,274.9"/>
		<path class="st1" d="M2133.8,288.3c-0.5,0.5-0.7,1.1-0.7,1.9v79.7c0,0.8,0.2,1.4,0.7,1.9s1.1,0.7,1.9,0.7h20.8
			c0.8,0,1.4-0.2,1.9-0.7s0.7-1.1,0.7-1.9v-79.7c0-0.8-0.2-1.4-0.7-1.9s-1.1-0.7-1.9-0.7h-20.8
			C2134.9,287.6,2134.3,287.9,2133.8,288.3"/>
		<path class="st2" d="M2354.4,311.8c3.2-2.5,7.1-3.8,11.6-3.8c4.4,0,8.1,1.3,11.3,3.8c3.1,2.4,5.1,6,5.9,10.7h-35
			C2349,317.8,2351.1,314.3,2354.4,311.8 M2405,336.6c0.8-1.7,1.2-4.5,1.2-8.3c0-7.6-1.7-14.7-5-21.2s-8.1-11.6-14.2-15.4
			c-6.1-3.8-13.2-5.7-21.1-5.7c-8.1,0-15.4,2-22,5.9c-6.6,3.8-11.8,9.1-15.6,15.8c-3.7,6.7-5.5,14.1-5.5,22.2s1.9,15.5,5.7,22.2
			c3.8,6.7,9.1,12,15.9,15.9c6.9,3.9,14.7,5.9,23.4,5.9c6.1,0,11.8-1.1,17.2-3.3c5.4-2.3,10.2-5.5,14.4-9.7c0.7-0.7,1-1.4,1-2.1
			s-0.2-1.3-0.7-1.7l-9-8.7c-0.7-0.7-1.3-1-1.9-1c-0.7,0-1.3,0.2-1.9,0.7c-2.9,1.8-5.7,3.2-8.3,4c-2.5,0.7-5.3,1-8.1,1
			c-5.8,0-10.6-1.2-14.4-3.5c-3.7-2.4-6.2-6-7.4-10.6h51.5C2402.5,339.1,2404.2,338.2,2405,336.6"/>
		<path class="st2" d="M2456,308c-4.5,0-8.4,1.3-11.6,3.8c-3.2,2.4-5.3,6-6.2,10.7h35c-0.8-4.7-2.8-8.3-5.9-10.7
			C2464.2,309.3,2460.4,308,2456,308 M2496.3,328.3c0,3.8-0.4,6.6-1.2,8.3c-0.8,1.6-2.5,2.4-5,2.4h-51.5c1.3,4.6,3.8,8.1,7.4,10.6
			c3.8,2.3,8.6,3.5,14.4,3.5c2.9,0,5.6-0.4,8.1-1c2.7-0.8,5.4-2.1,8.3-4c0.6-0.5,1.2-0.7,1.9-0.7c0.6,0,1.2,0.3,1.9,1l9,8.7
			c0.5,0.5,0.7,1,0.7,1.7s-0.3,1.4-1,2.1c-4.2,4.2-9,7.4-14.4,9.7c-5.3,2.2-11,3.3-17.2,3.3c-8.7,0-16.5-2-23.4-5.9
			c-6.8-3.9-12.1-9.2-15.9-15.9c-3.8-6.7-5.7-14.1-5.7-22.2s1.9-15.5,5.5-22.2c3.8-6.7,9-12,15.6-15.8c6.6-3.9,13.9-5.9,22-5.9
			c8,0,15,1.9,21.1,5.7c6.1,3.8,10.9,9,14.2,15.4C2494.6,313.6,2496.3,320.7,2496.3,328.3"/>
		<path class="st2" d="M2561.5,344.6c-3.6,3.7-8.1,5.5-13.7,5.5c-5.7,0-10.3-1.8-13.9-5.5c-3.5-3.7-5.2-8.5-5.2-14.4
			c0-5.8,1.7-10.6,5.2-14.6c3.6-3.9,8.2-5.9,13.9-5.9c5.5,0,10.1,1.9,13.7,5.7c3.7,3.8,5.5,8.7,5.5,14.7
			C2567.1,336.1,2565.2,340.9,2561.5,344.6 M2571.9,291.9c-6.2-3.9-13.2-5.9-21-5.9c-9.9,0-18.1,4-24.4,12.1l-0.9-7.8
			c-0.2-1.7-1.1-2.6-2.6-2.6h-17.7c-0.8,0-1.4,0.2-1.9,0.7s-0.7,1.1-0.7,1.9V403c0,0.8,0.2,1.4,0.7,1.9s1.1,0.7,1.9,0.7h20.8
			c0.8,0,1.4-0.2,1.9-0.7s0.7-1.1,0.7-1.9v-38c5.7,5.9,13.1,8.8,22.2,8.8c7.7,0,14.7-1.9,21-5.7c6.4-3.9,11.3-9.2,14.7-15.8
			c3.6-6.7,5.4-14,5.4-22c0-8.2-1.8-15.7-5.4-22.4C2583.2,301.2,2578.3,295.8,2571.9,291.9"/>
		<path class="st1" d="M2222,287.6c0.8,0,1.4,0.2,1.9,0.7s0.7,1.1,0.7,1.9V306c0,0.8-0.2,1.4-0.7,1.9s-1.1,0.7-1.9,0.7h-13.9V370
			c0,0.8-0.2,1.4-0.7,1.9s-1.1,0.7-1.9,0.7h-20.8c-0.8,0-1.4-0.2-1.9-0.7s-0.7-1.1-0.7-1.9v-61.4h-13.9c-0.8,0-1.4-0.2-1.9-0.7
			s-0.7-1.1-0.7-1.9v-15.8c0-0.8,0.2-1.4,0.7-1.9s1.1-0.7,1.9-0.7h13.9v-23.4c0-0.8,0.2-1.4,0.7-1.9s1.1-0.7,1.9-0.7h20.8
			c0.8,0,1.4,0.2,1.9,0.7s0.7,1.1,0.7,1.9v23.4H2222z"/>
		<path class="st2" d="M2082.3,348.8c5.3,0,9.5-1.2,12.7-3.6c3.1-2.4,4.7-6.1,4.7-10.9c0-4.7-1.6-8.2-4.7-10.4
			c-3.1-2.3-7.3-3.5-12.7-3.5h-19.4v28.4H2082.3z M2092.4,286.1c0-7.4-4.6-11.1-13.7-11.1h-15.8v23.2h15.8c4.3,0,7.6-1,10.1-2.9
			C2091.2,293.2,2092.4,290.1,2092.4,286.1 M2102.8,307.7c6.5,1.7,12,5.3,16.6,10.6c4.7,5.3,7.1,11.7,7.1,19.2
			c0,11.7-3.8,20.5-11.3,26.3c-7.4,5.8-18.7,8.7-34,8.7h-42.6c-0.8,0-1.4-0.2-1.9-0.7s-0.7-1.1-0.7-1.9V253.8c0-0.8,0.2-1.4,0.7-1.9
			s1.1-0.7,1.9-0.7h42.5c7.6,0,14.2,1.4,19.6,4.2c5.5,2.8,9.7,6.5,12.5,11.3c2.9,4.7,4.3,10.1,4.3,15.9c0,6-1.4,11.3-4.3,15.8
			C2110.4,302.9,2106.9,306,2102.8,307.7"/>
		<path class="st1" d="M2332.2,371.7c0-0.6-0.2-1.1-0.5-1.6l-48.3-65.1l46.6-50.1c0.6-0.6,0.9-1.1,0.9-1.6s-0.2-0.8-0.7-1
			c-0.3-0.3-0.9-0.5-1.6-0.5H2305c-1.2,0-2.1,0.5-2.9,1.4l-44.7,48.4v-47.2c0-0.8-0.2-1.5-0.7-1.9c-0.5-0.5-1.1-0.7-1.9-0.7H2234
			c-0.8,0-1.4,0.2-1.9,0.7s-0.7,1.1-0.7,1.9v116.2c0,0.8,0.2,1.4,0.7,1.9s1.1,0.7,1.9,0.7h20.8c0.8,0,1.4-0.2,1.9-0.7
			s0.7-1.1,0.7-1.9v-37.5l10.2-11.1l37,49.6c0.7,1,1.7,1.6,3.1,1.6h22.4C2331.5,373.2,2332.2,372.7,2332.2,371.7"/>
	</g>
	<path class="st2" d="M1972.5,296.9v14.5c0,2.9-1.5,5.5-4,6.9l-46.9,27.1l41.9,24.1c5.6,3.2,9,9.2,9,15.6v38.8
		c0,6.4-3.4,12.4-9,15.6l-110.1,63.2c-5.6,3.2-12.4,3.2-18,0l-36.1-20.8c-2.7-1.5-2.7-5.4,0-6.9l119-68.5c1.3-0.8,1.3-2.7,0-3.5
		l-44.2-25.5c-2.5-1.4-5.5-1.4-8,0l-120.9,69.7c-1.8,1.1-4.1,1.1-6,0l-13.7-7.8c-5.6-3.2-9.1-9.2-9.1-15.6v-15.9
		c0-2.1,1.1-4.1,3-5.2l173.3-99.6c1.3-0.8,1.3-2.7,0-3.5l-44.3-25.6c-2.5-1.4-5.5-1.4-8,0l-118.1,67.9c-2.7,1.5-6-0.4-6-3.5v-41.6
		c0-6.4,3.4-12.4,9-15.6l110.1-63.2c5.6-3.2,12.4-3.2,18,0l109.9,63.4C1969.1,284.5,1972.5,290.5,1972.5,296.9z"/>
	<g>
		<path class="st1" d="M2072.8,455.3c0,10.4-8,18.5-17.8,18.5c-6,0-10.5-2.7-13.3-7v6h-6.1v-49.2h6.1v20.1c2.8-4.3,7.3-7,13.3-7
			C2064.7,436.8,2072.8,444.9,2072.8,455.3z M2066.6,455.3c0-7.2-5.4-12.6-12.4-12.6c-7.1,0-12.5,5.4-12.5,12.6s5.4,12.6,12.5,12.6
			C2061.2,467.9,2066.6,462.5,2066.6,455.3z"/>
		<path class="st1" d="M2095.9,427.3c0-2.2,1.8-4.1,4.1-4.1c2.2,0,4.1,1.9,4.1,4.1s-1.8,4.1-4.1,4.1
			C2097.7,431.3,2095.9,429.5,2095.9,427.3z M2096.9,437.7h6.1v35.2h-6.1V437.7z"/>
		<path class="st1" d="M2139,443.6v19c0,5.3,3.1,5,9.3,4.7v5.5c-10.5,1.4-15.5-1.4-15.5-10.2v-19h-7v-5.9h7v-8l6.1-1.8v9.8h9.3v5.9
			H2139z"/>
		<path class="st1" d="M2194.6,472.9l-16-16.7v16.7h-6.1v-49.2h6.1v29.6l15.2-15.5h7.9l-16.8,17l17.4,18.1H2194.6z"/>
		<path class="st1" d="M2238.6,468c4.8,0,8.4-2.2,10.1-5.1l5.2,3c-3.1,4.8-8.4,7.9-15.5,7.9c-11.3,0-18.8-7.9-18.8-18.5
			c0-10.4,7.5-18.5,18.4-18.5c10.6,0,17.5,8.7,17.5,18.6c0,0.9-0.1,1.8-0.2,2.7h-29.5C2227.1,464.4,2232,468,2238.6,468z
			 M2225.9,452.8h23.5c-1.1-7-6-10.2-11.3-10.2C2231.4,442.6,2226.8,446.7,2225.9,452.8z"/>
		<path class="st1" d="M2296.4,468c4.8,0,8.4-2.2,10.1-5.1l5.2,3c-3.1,4.8-8.4,7.9-15.5,7.9c-11.3,0-18.8-7.9-18.8-18.5
			c0-10.4,7.5-18.5,18.4-18.5c10.6,0,17.5,8.7,17.5,18.6c0,0.9-0.1,1.8-0.2,2.7h-29.5C2284.8,464.4,2289.8,468,2296.4,468z
			 M2283.6,452.8h23.5c-1.1-7-6-10.2-11.3-10.2C2289.2,442.6,2284.6,446.7,2283.6,452.8z"/>
		<path class="st1" d="M2374.4,455.3c0,10.4-8,18.5-17.8,18.5c-6,0-10.5-2.7-13.3-7v20.1h-6.1v-49.2h6.1v6c2.8-4.3,7.3-7,13.3-7
			C2366.4,436.8,2374.4,444.9,2374.4,455.3z M2368.3,455.3c0-7.2-5.4-12.6-12.4-12.6c-7.1,0-12.5,5.4-12.5,12.6s5.4,12.6,12.5,12.6
			C2362.9,467.9,2368.3,462.5,2368.3,455.3z"/>
		<path class="st1" d="M2395.1,469.1c0-2.5,2-4.6,4.6-4.6c2.6,0,4.6,2,4.6,4.6c0,2.5-2,4.6-4.6,4.6
			C2397.1,473.6,2395.1,471.6,2395.1,469.1z"/>
		<path class="st1" d="M2424.9,455.3c0-10.4,7.9-18.5,18.5-18.5c7,0,12.9,3.7,15.5,9.2l-5.1,3c-1.8-3.7-5.7-6.2-10.4-6.2
			c-7,0-12.4,5.4-12.4,12.5c0,7,5.3,12.4,12.4,12.4c4.8,0,8.6-2.5,10.6-6.1l5.2,3c-3,5.5-8.9,9.1-15.8,9.1
			C2432.8,473.8,2424.9,465.7,2424.9,455.3z"/>
		<path class="st1" d="M2479.7,455.3c0-10.4,8.2-18.5,18.5-18.5s18.6,8.1,18.6,18.5s-8.3,18.5-18.6,18.5
			C2487.9,473.8,2479.7,465.7,2479.7,455.3z M2510.6,455.3c0-7.1-5.4-12.5-12.4-12.5s-12.4,5.4-12.4,12.5s5.4,12.5,12.4,12.5
			C2505.2,467.8,2510.6,462.4,2510.6,455.3z"/>
		<path class="st1" d="M2592,451v21.9h-6.1v-21.6c0-5.6-3.1-8.6-7.7-8.6c-4.9,0-8.6,3.1-8.6,10.7v19.5h-6.1v-21.6
			c0-5.6-2.9-8.6-7.5-8.6c-4.7,0-9,3.1-9,10.7v19.5h-6.1v-35.1h6.1v4.7c2.5-3.9,6.2-5.6,10.5-5.6c4.8,0,8.3,2.2,10.3,6
			c2.5-4,6.5-6,11-6C2586.6,436.8,2592,442.2,2592,451z"/>
	</g>
</g>
<rect x="1509.3" y="1028.1" class="st1" width="1295.3" height="736.1"/>
<g>
	<g>
		<path class="st4" d="M2098.8,1351c3.3,3.3,7.3,4.9,12.1,4.9s8.9-1.6,12.1-4.9c3.3-3.4,4.9-7.4,4.9-12.1c0-4.8-1.6-8.9-4.9-12.1
			c-3.3-3.4-7.3-5.1-12.1-5.1s-8.9,1.7-12.1,5.1c-3.3,3.3-4.9,7.3-4.9,12.1C2093.9,1343.6,2095.5,1347.6,2098.8,1351"/>
		<path class="st4" d="M2095.8,1367.6c-0.6,0.6-0.8,1.3-0.8,2.3v97.8c0,1,0.3,1.8,0.8,2.3c0.6,0.6,1.3,0.8,2.3,0.8h25.5
			c1,0,1.8-0.3,2.3-0.8c0.6-0.6,0.9-1.3,0.9-2.3v-97.8c0-1-0.3-1.8-0.9-2.3c-0.6-0.6-1.3-0.8-2.3-0.8h-25.5
			C2097.2,1366.7,2096.4,1367,2095.8,1367.6"/>
		<path class="st5" d="M2366.3,1396.4c4-3.1,8.7-4.7,14.2-4.7c5.4,0,10,1.6,13.8,4.7c3.8,3,6.2,7.4,7.2,13.2h-42.9
			C2359.8,1403.8,2362.4,1399.4,2366.3,1396.4 M2428.4,1426.8c1-2.1,1.5-5.5,1.5-10.2c0-9.4-2.1-18-6.2-25.9
			c-4.1-7.9-9.9-14.2-17.4-18.9c-7.5-4.7-16.2-7-25.9-7c-9.9,0-18.9,2.4-27,7.2c-8.1,4.7-14.5,11.1-19.1,19.3
			c-4.5,8.2-6.8,17.3-6.8,27.2s2.3,19,7,27.2c4.7,8.2,11.2,14.7,19.6,19.6c8.5,4.8,18.1,7.2,28.7,7.2c7.5,0,14.5-1.3,21-4
			c6.7-2.8,12.5-6.8,17.6-11.9c0.8-0.8,1.3-1.7,1.3-2.5c0-0.8-0.3-1.6-0.9-2.1l-11.1-10.6c-0.9-0.9-1.6-1.3-2.3-1.3
			c-0.9,0-1.6,0.3-2.3,0.9c-3.5,2.3-6.9,3.9-10.2,4.9c-3.1,0.8-6.4,1.3-10,1.3c-7.1,0-13-1.4-17.6-4.2c-4.5-3-7.6-7.3-9.1-13h63.1
			C2425.4,1429.8,2427.4,1428.8,2428.4,1426.8"/>
		<path class="st5" d="M2491.1,1391.7c-5.5,0-10.3,1.6-14.2,4.7c-4,3-6.5,7.4-7.6,13.2h42.9c-1-5.8-3.4-10.2-7.2-13.2
			C2501,1393.3,2496.4,1391.7,2491.1,1391.7 M2540.4,1416.6c0,4.7-0.5,8.1-1.5,10.2c-1,2-3,3-6.2,3h-63.1c1.6,5.7,4.6,10,9.1,13
			c4.7,2.8,10.6,4.2,17.6,4.2c3.6,0,6.9-0.4,10-1.3c3.3-1,6.7-2.6,10.2-4.9c0.7-0.6,1.5-0.9,2.3-0.9c0.7,0,1.5,0.4,2.3,1.3
			l11.1,10.6c0.6,0.6,0.9,1.3,0.9,2.1c0,0.8-0.4,1.7-1.3,2.5c-5.1,5.1-11,9.1-17.6,11.9c-6.5,2.7-13.5,4-21,4
			c-10.6,0-20.2-2.4-28.7-7.2c-8.4-4.8-14.9-11.3-19.6-19.6c-4.7-8.2-7-17.3-7-27.2s2.3-19,6.8-27.2c4.7-8.2,11.1-14.7,19.1-19.3
			c8.1-4.8,17.1-7.2,27-7.2c9.8,0,18.4,2.3,25.9,7c7.5,4.7,13.3,11,17.4,18.9C2538.3,1398.6,2540.4,1407.2,2540.4,1416.6"/>
		<path class="st5" d="M2620.4,1436.6c-4.4,4.5-10,6.8-16.8,6.8c-6.9,0-12.6-2.3-17-6.8c-4.3-4.5-6.4-10.4-6.4-17.6
			c0-7.1,2.1-13,6.4-17.9c4.4-4.8,10.1-7.2,17-7.2c6.8,0,12.4,2.3,16.8,7c4.5,4.7,6.8,10.7,6.8,18.1
			C2627.2,1426.2,2625,1432.1,2620.4,1436.6 M2633.2,1372c-7.7-4.8-16.2-7.2-25.7-7.2c-12.2,0-22.2,5-30,14.9l-1.1-9.6
			c-0.3-2.1-1.3-3.2-3.2-3.2h-21.7c-1,0-1.8,0.3-2.3,0.8c-0.6,0.6-0.8,1.3-0.8,2.3v138.2c0,1,0.3,1.8,0.8,2.3
			c0.6,0.6,1.3,0.9,2.3,0.9h25.5c1,0,1.8-0.3,2.3-0.9c0.6-0.6,0.8-1.4,0.8-2.3v-46.6c7,7.2,16,10.8,27.2,10.8c9.5,0,18.1-2.3,25.7-7
			c7.8-4.8,13.8-11.3,18.1-19.4c4.4-8.2,6.6-17.2,6.6-27c0-10.1-2.2-19.2-6.6-27.4C2647,1383.4,2641,1376.8,2633.2,1372"/>
		<path class="st4" d="M2204,1366.7c1,0,1.8,0.3,2.3,0.8c0.6,0.6,0.8,1.3,0.8,2.3v19.3c0,1-0.3,1.8-0.8,2.3
			c-0.6,0.6-1.3,0.9-2.3,0.9h-17v75.3c0,1-0.3,1.8-0.9,2.3c-0.6,0.6-1.3,0.9-2.3,0.9h-25.5c-1,0-1.8-0.3-2.3-0.9
			c-0.6-0.6-0.9-1.3-0.9-2.3v-75.3h-17c-1,0-1.8-0.3-2.3-0.9c-0.6-0.6-0.9-1.3-0.9-2.3v-19.3c0-1,0.3-1.8,0.9-2.3
			c0.6-0.6,1.4-0.8,2.3-0.8h17V1338c0-1,0.3-1.8,0.9-2.3c0.6-0.6,1.3-0.8,2.3-0.8h25.5c1,0,1.8,0.3,2.3,0.8c0.6,0.6,0.9,1.3,0.9,2.3
			v28.7H2204z"/>
		<path class="st5" d="M2032.6,1441.8c6.5,0,11.7-1.5,15.5-4.5c3.8-3,5.7-7.4,5.7-13.4c0-5.8-1.9-10.1-5.7-12.8
			c-3.8-2.8-9-4.3-15.5-4.3h-23.8v34.9L2032.6,1441.8L2032.6,1441.8z M2045,1364.8c0-9.1-5.6-13.6-16.8-13.6h-19.3v28.5h19.3
			c5.2,0,9.4-1.2,12.3-3.6C2043.5,1373.5,2045,1369.8,2045,1364.8 M2057.7,1391.4c7.9,2.1,14.7,6.4,20.4,13
			c5.8,6.5,8.7,14.4,8.7,23.6c0,14.3-4.6,25.1-13.8,32.3c-9.1,7.1-23,10.6-41.7,10.6H1979c-1,0-1.8-0.3-2.3-0.8
			c-0.6-0.6-0.8-1.3-0.8-2.3v-142.5c0-1,0.3-1.8,0.8-2.3c0.6-0.6,1.3-0.9,2.3-0.9h52.1c9.4,0,17.4,1.7,24,5.1
			c6.8,3.4,11.9,8,15.3,13.8c3.5,5.8,5.3,12.3,5.3,19.6c0,7.4-1.8,13.8-5.3,19.3C2067.1,1385.4,2062.8,1389.2,2057.7,1391.4"/>
		<path class="st4" d="M2339.1,1469.8c0-0.7-0.2-1.3-0.6-1.9l-59.2-79.8l57.1-61.5c0.7-0.7,1.1-1.4,1.1-1.9c0-0.6-0.3-1-0.9-1.3
			c-0.4-0.4-1.1-0.6-1.9-0.6h-28.9c-1.4,0-2.6,0.6-3.6,1.7l-54.8,59.4V1326c0-1-0.3-1.8-0.9-2.3c-0.6-0.6-1.3-0.9-2.3-0.9h-25.5
			c-1,0-1.8,0.3-2.3,0.9c-0.6,0.6-0.8,1.3-0.8,2.3v142.6c0,1,0.3,1.8,0.8,2.3c0.6,0.6,1.3,0.8,2.3,0.8h25.5c1,0,1.8-0.3,2.3-0.8
			c0.6-0.6,0.9-1.3,0.9-2.3v-46l12.5-13.6l45.4,60.9c0.8,1.3,2.1,1.9,3.8,1.9h27.4C2338.2,1471.7,2339.1,1471.1,2339.1,1469.8"/>
	</g>
	<path class="st6" d="M1912.1,1332.7v14.5c0,2.9-1.5,5.5-4,6.9l-46.9,27.1l41.9,24.1c5.6,3.2,9,9.2,9,15.6v38.8
		c0,6.4-3.4,12.4-9,15.6l-110.1,63.2c-5.6,3.2-12.4,3.2-18,0l-36.1-20.8c-2.7-1.5-2.7-5.4,0-6.9l119-68.5c1.3-0.8,1.3-2.7,0-3.5
		l-44.2-25.5c-2.5-1.4-5.5-1.4-8,0l-120.9,69.7c-1.8,1.1-4.1,1.1-6,0l-13.7-7.8c-5.6-3.2-9.1-9.2-9.1-15.6v-15.9
		c0-2.1,1.1-4.1,3-5.2l173.3-99.6c1.3-0.8,1.3-2.7,0-3.5l-44.3-25.6c-2.5-1.4-5.5-1.4-8,0l-118.1,67.9c-2.7,1.5-6-0.4-6-3.5v-41.6
		c0-6.4,3.4-12.4,9-15.6l110.1-63.2c5.6-3.2,12.4-3.2,18,0l109.9,63.4C1908.7,1320.3,1912.1,1326.3,1912.1,1332.7z"/>
</g>
<g>
	<g>
		<path class="st4" d="M619.7,1320.9c2.7,2.7,5.9,4,9.9,4c3.9,0,7.2-1.3,9.9-4c2.7-2.8,4-6.1,4-9.9c0-3.9-1.3-7.2-4-9.9
			c-2.7-2.8-6-4.2-9.9-4.2s-7.2,1.4-9.9,4.2c-2.7,2.7-4,6-4,9.9C615.7,1314.9,617,1318.2,619.7,1320.9"/>
		<path class="st4" d="M617.3,1334.4c-0.5,0.5-0.7,1.1-0.7,1.9v79.7c0,0.8,0.2,1.4,0.7,1.9s1.1,0.7,1.9,0.7H640
			c0.8,0,1.4-0.2,1.9-0.7s0.7-1.1,0.7-1.9v-79.7c0-0.8-0.2-1.4-0.7-1.9s-1.1-0.7-1.9-0.7h-20.8
			C618.4,1333.7,617.7,1334,617.3,1334.4"/>
		<path class="st5" d="M837.8,1357.9c3.2-2.5,7.1-3.8,11.6-3.8c4.4,0,8.1,1.3,11.3,3.8c3.1,2.4,5.1,6,5.9,10.7h-35
			C832.5,1363.9,834.6,1360.4,837.8,1357.9 M888.4,1382.7c0.8-1.7,1.2-4.5,1.2-8.3c0-7.6-1.7-14.7-5-21.2s-8.1-11.6-14.2-15.4
			c-6.1-3.8-13.2-5.7-21.1-5.7c-8.1,0-15.4,2-22,5.9c-6.6,3.8-11.8,9.1-15.6,15.8c-3.7,6.7-5.5,14.1-5.5,22.2
			c0,8.1,1.9,15.5,5.7,22.2c3.8,6.7,9.1,12,15.9,15.9c6.9,3.9,14.7,5.9,23.4,5.9c6.1,0,11.8-1.1,17.2-3.3c5.4-2.3,10.2-5.5,14.4-9.7
			c0.7-0.7,1-1.4,1-2.1c0-0.7-0.2-1.3-0.7-1.7l-9-8.7c-0.7-0.7-1.3-1-1.9-1c-0.7,0-1.3,0.2-1.9,0.7c-2.9,1.8-5.7,3.2-8.3,4
			c-2.5,0.7-5.3,1-8.1,1c-5.8,0-10.6-1.2-14.4-3.5c-3.7-2.4-6.2-6-7.4-10.6h51.5C885.9,1385.1,887.6,1384.3,888.4,1382.7"/>
		<path class="st5" d="M939.5,1354.1c-4.5,0-8.4,1.3-11.6,3.8c-3.2,2.4-5.3,6-6.2,10.7h35c-0.8-4.7-2.8-8.3-5.9-10.7
			C947.6,1355.4,943.9,1354.1,939.5,1354.1 M979.7,1374.4c0,3.8-0.4,6.6-1.2,8.3c-0.8,1.6-2.5,2.4-5,2.4H922
			c1.3,4.6,3.8,8.1,7.4,10.6c3.8,2.3,8.6,3.5,14.4,3.5c2.9,0,5.6-0.4,8.1-1c2.7-0.8,5.4-2.1,8.3-4c0.6-0.5,1.2-0.7,1.9-0.7
			c0.6,0,1.2,0.3,1.9,1l9,8.7c0.5,0.5,0.7,1,0.7,1.7c0,0.7-0.3,1.4-1,2.1c-4.2,4.2-9,7.4-14.4,9.7c-5.3,2.2-11,3.3-17.2,3.3
			c-8.7,0-16.5-2-23.4-5.9c-6.8-3.9-12.1-9.2-15.9-15.9c-3.8-6.7-5.7-14.1-5.7-22.2c0-8.1,1.9-15.5,5.5-22.2c3.8-6.7,9-12,15.6-15.8
			c6.6-3.9,13.9-5.9,22-5.9c8,0,15,1.9,21.1,5.7c6.1,3.8,10.9,9,14.2,15.4C978,1359.7,979.7,1366.8,979.7,1374.4"/>
		<path class="st5" d="M1044.9,1390.7c-3.6,3.7-8.1,5.5-13.7,5.5c-5.7,0-10.3-1.8-13.9-5.5c-3.5-3.7-5.2-8.5-5.2-14.4
			c0-5.8,1.7-10.6,5.2-14.6c3.6-3.9,8.2-5.9,13.9-5.9c5.5,0,10.1,1.9,13.7,5.7c3.7,3.8,5.5,8.7,5.5,14.7
			C1050.5,1382.2,1048.6,1387,1044.9,1390.7 M1055.3,1338c-6.2-3.9-13.2-5.9-21-5.9c-9.9,0-18.1,4-24.4,12.1l-0.9-7.8
			c-0.2-1.7-1.1-2.6-2.6-2.6h-17.7c-0.8,0-1.4,0.2-1.9,0.7s-0.7,1.1-0.7,1.9v112.7c0,0.8,0.2,1.4,0.7,1.9s1.1,0.7,1.9,0.7h20.8
			c0.8,0,1.4-0.2,1.9-0.7s0.7-1.1,0.7-1.9v-38c5.7,5.9,13.1,8.8,22.2,8.8c7.7,0,14.7-1.9,21-5.7c6.4-3.9,11.3-9.2,14.7-15.8
			c3.6-6.7,5.4-14,5.4-22c0-8.2-1.8-15.7-5.4-22.4C1066.6,1347.3,1061.7,1341.9,1055.3,1338"/>
		<path class="st4" d="M705.4,1333.7c0.8,0,1.4,0.2,1.9,0.7s0.7,1.1,0.7,1.9v15.8c0,0.8-0.2,1.4-0.7,1.9s-1.1,0.7-1.9,0.7h-13.9
			v61.4c0,0.8-0.2,1.4-0.7,1.9s-1.1,0.7-1.9,0.7h-20.8c-0.8,0-1.4-0.2-1.9-0.7s-0.7-1.1-0.7-1.9v-61.4h-13.9c-0.8,0-1.4-0.2-1.9-0.7
			s-0.7-1.1-0.7-1.9v-15.8c0-0.8,0.2-1.4,0.7-1.9s1.1-0.7,1.9-0.7h13.9v-23.4c0-0.8,0.2-1.4,0.7-1.9s1.1-0.7,1.9-0.7h20.8
			c0.8,0,1.4,0.2,1.9,0.7s0.7,1.1,0.7,1.9v23.4H705.4z"/>
		<path class="st5" d="M565.8,1394.9c5.3,0,9.5-1.2,12.7-3.6c3.1-2.4,4.7-6.1,4.7-10.9c0-4.7-1.6-8.2-4.7-10.4
			c-3.1-2.3-7.3-3.5-12.7-3.5h-19.5v28.4H565.8z M575.8,1332.2c0-7.4-4.6-11.1-13.7-11.1h-15.8v23.2h15.8c4.3,0,7.6-1,10.1-2.9
			C574.6,1339.3,575.8,1336.2,575.8,1332.2 M586.2,1353.8c6.5,1.7,12,5.3,16.6,10.6c4.7,5.3,7.1,11.7,7.1,19.2
			c0,11.7-3.8,20.5-11.3,26.3c-7.4,5.8-18.7,8.7-34,8.7H522c-0.8,0-1.4-0.2-1.9-0.7s-0.7-1.1-0.7-1.9v-116.1c0-0.8,0.2-1.4,0.7-1.9
			s1.1-0.7,1.9-0.7h42.5c7.6,0,14.2,1.4,19.6,4.2c5.5,2.8,9.7,6.5,12.5,11.3c2.9,4.7,4.3,10.1,4.3,15.9c0,6-1.4,11.3-4.3,15.8
			C593.8,1349,590.4,1352.1,586.2,1353.8"/>
		<path class="st4" d="M815.6,1417.8c0-0.6-0.2-1.1-0.5-1.6l-48.3-65.1l46.6-50.1c0.6-0.6,0.9-1.1,0.9-1.6s-0.2-0.8-0.7-1
			c-0.3-0.3-0.9-0.5-1.6-0.5h-23.6c-1.2,0-2.1,0.5-2.9,1.4l-44.7,48.4v-47.2c0-0.8-0.2-1.5-0.7-1.9c-0.5-0.5-1.1-0.7-1.9-0.7h-20.8
			c-0.8,0-1.4,0.2-1.9,0.7s-0.7,1.1-0.7,1.9v116.2c0,0.8,0.2,1.4,0.7,1.9s1.1,0.7,1.9,0.7h20.8c0.8,0,1.4-0.2,1.9-0.7
			s0.7-1.1,0.7-1.9v-37.5l10.2-11.1l37,49.6c0.7,1,1.7,1.6,3.1,1.6h22.4C814.9,1419.3,815.6,1418.8,815.6,1417.8"/>
	</g>
	<path class="st6" d="M455.9,1343v14.5c0,2.9-1.5,5.5-4,6.9l-46.9,27.1l41.9,24.1c5.6,3.2,9,9.2,9,15.6v38.8c0,6.4-3.4,12.4-9,15.6
		l-110.1,63.2c-5.6,3.2-12.4,3.2-18,0l-36.1-20.8c-2.7-1.5-2.7-5.4,0-6.9l119-68.5c1.3-0.8,1.3-2.7,0-3.5l-44.2-25.5
		c-2.5-1.4-5.5-1.4-8,0l-120.9,69.7c-1.8,1.1-4.1,1.1-6,0l-13.7-7.8c-5.6-3.2-9.1-9.2-9.1-15.6V1454c0-2.1,1.1-4.1,3-5.2l173.5-99.7
		c1.3-0.8,1.3-2.7,0-3.5L332,1320c-2.5-1.4-5.5-1.4-8,0l-118.1,67.9c-2.7,1.5-6-0.4-6-3.5v-41.6c0-6.4,3.4-12.4,9-15.6L319,1264
		c5.6-3.2,12.4-3.2,18,0l109.9,63.4C452.5,1330.6,455.9,1336.6,455.9,1343z"/>
	<g>
		<path class="st4" d="M556.2,1501.4c0,10.4-8,18.5-17.8,18.5c-6,0-10.5-2.7-13.3-7v6H519v-49.2h6.1v20.1c2.8-4.3,7.3-7,13.3-7
			C548.2,1482.9,556.2,1491,556.2,1501.4z M550.1,1501.4c0-7.2-5.4-12.6-12.4-12.6c-7.1,0-12.5,5.4-12.5,12.6
			c0,7.2,5.4,12.6,12.5,12.6C544.7,1514,550.1,1508.6,550.1,1501.4z"/>
		<path class="st4" d="M579.3,1473.3c0-2.2,1.8-4.1,4.1-4.1c2.2,0,4.1,1.9,4.1,4.1c0,2.2-1.8,4.1-4.1,4.1S579.3,1475.6,579.3,1473.3
			z M580.4,1483.8h6.1v35.1h-6.1V1483.8z"/>
		<path class="st4" d="M622.5,1489.7v19c0,5.3,3.1,5,9.3,4.7v5.5c-10.5,1.4-15.5-1.4-15.5-10.2v-19h-7v-5.9h7v-8l6.1-1.8v9.8h9.3
			v5.9H622.5z"/>
		<path class="st4" d="M678.1,1519l-16-16.7v16.7H656v-49.2h6.1v29.6l15.2-15.5h7.9l-16.8,17l17.4,18.1H678.1z"/>
		<path class="st4" d="M722,1514.1c4.8,0,8.4-2.2,10.1-5.1l5.2,3c-3.1,4.8-8.4,7.9-15.5,7.9c-11.3,0-18.8-7.9-18.8-18.5
			c0-10.4,7.5-18.5,18.4-18.5c10.6,0,17.5,8.7,17.5,18.6c0,0.9-0.1,1.8-0.2,2.7h-29.4C710.5,1510.5,715.5,1514.1,722,1514.1z
			 M709.3,1498.9h23.5c-1.1-7-6-10.2-11.3-10.2C714.8,1488.7,710.3,1492.7,709.3,1498.9z"/>
		<path class="st4" d="M779.8,1514.1c4.8,0,8.4-2.2,10.1-5.1l5.2,3c-3.1,4.8-8.4,7.9-15.5,7.9c-11.3,0-18.8-7.9-18.8-18.5
			c0-10.4,7.5-18.5,18.4-18.5c10.6,0,17.5,8.7,17.5,18.6c0,0.9-0.1,1.8-0.2,2.7H767C768.3,1510.5,773.3,1514.1,779.8,1514.1z
			 M767.1,1498.9h23.5c-1.1-7-6-10.2-11.3-10.2C772.6,1488.7,768.1,1492.7,767.1,1498.9z"/>
		<path class="st4" d="M857.8,1501.4c0,10.4-8,18.5-17.8,18.5c-6,0-10.5-2.7-13.3-7v20.1h-6.1v-49.2h6.1v6c2.8-4.3,7.3-7,13.3-7
			C849.8,1482.9,857.8,1491,857.8,1501.4z M851.7,1501.4c0-7.2-5.4-12.6-12.4-12.6c-7.1,0-12.5,5.4-12.5,12.6
			c0,7.2,5.4,12.6,12.5,12.6C846.3,1514,851.7,1508.6,851.7,1501.4z"/>
		<path class="st4" d="M878.5,1515.2c0-2.5,2-4.6,4.6-4.6s4.6,2,4.6,4.6c0,2.5-2,4.6-4.6,4.6
			C880.5,1519.7,878.5,1517.7,878.5,1515.2z"/>
		<path class="st4" d="M908.4,1501.4c0-10.4,7.9-18.5,18.5-18.5c7,0,12.9,3.7,15.5,9.2l-5.1,3c-1.8-3.7-5.7-6.2-10.4-6.2
			c-7,0-12.4,5.4-12.4,12.5c0,7,5.3,12.4,12.4,12.4c4.8,0,8.6-2.5,10.6-6.1l5.2,3c-3,5.5-8.9,9.1-15.8,9.1
			C916.2,1519.9,908.4,1511.8,908.4,1501.4z"/>
		<path class="st4" d="M963.1,1501.4c0-10.4,8.2-18.5,18.5-18.5s18.6,8.1,18.6,18.5c0,10.4-8.3,18.5-18.6,18.5
			S963.1,1511.8,963.1,1501.4z M994.1,1501.4c0-7.1-5.4-12.5-12.4-12.5s-12.4,5.4-12.4,12.5c0,7.1,5.4,12.5,12.4,12.5
			C988.6,1513.9,994.1,1508.5,994.1,1501.4z"/>
		<path class="st4" d="M1075.5,1497.1v21.9h-6.1v-21.6c0-5.6-3.1-8.6-7.7-8.6c-4.9,0-8.6,3.1-8.6,10.7v19.5h-6.1v-21.6
			c0-5.6-2.9-8.6-7.5-8.6c-4.7,0-9,3.1-9,10.7v19.5h-6.1v-35.1h6.1v4.7c2.5-3.9,6.2-5.6,10.5-5.6c4.8,0,8.3,2.2,10.3,6
			c2.5-4,6.5-6,11-6C1070,1482.9,1075.5,1488.3,1075.5,1497.1z"/>
	</g>
</g>
<path class="st6" d="M2345.1,2550.7v36.2c0,7.1-3.8,13.7-9.9,17.2l-116.6,67.3l104.1,59.9c13.9,8,22.4,22.8,22.4,38.8v96.4
	c0,16-8.6,30.8-22.5,38.8l-273.8,157.1c-13.8,7.9-30.8,7.9-44.7-0.1l-89.6-51.8c-6.6-3.8-6.6-13.4,0-17.2l295.9-170.3
	c3.3-1.9,3.3-6.7,0-8.6l-109.9-63.5c-6.1-3.6-13.7-3.6-19.9,0L1780,2924.1c-4.6,2.6-10.3,2.7-14.9,0l-34-19.5
	c-13.9-8-22.5-22.8-22.5-38.9v-39.5c0-5.3,2.9-10.3,7.5-12.9l430.9-247.6c3.3-1.9,3.3-6.7,0-8.6l-110-63.7c-6.1-3.6-13.7-3.6-19.9,0
	l-293.6,168.9c-6.6,3.8-14.9-1-14.9-8.6v-103.5c0-16,8.6-30.8,22.5-38.8l273.8-157.1c13.8-7.9,30.8-7.9,44.6,0l273.2,157.6
	C2336.6,2520,2345.1,2534.7,2345.1,2550.7z"/>
<rect x="-7.7" y="2196.4" class="st6" width="1024" height="1024"/>
<rect x="-7.7" y="2196.4" class="st3" width="1024" height="1024"/>
<path class="st2" d="M822.7,2550.7v36.2c0,7.1-3.8,13.7-9.9,17.2l-116.6,67.3l104.1,59.9c13.9,8,22.4,22.8,22.4,38.8v96.4
	c0,16-8.6,30.8-22.5,38.8l-273.8,157.1c-13.8,7.9-30.8,7.9-44.7-0.1l-89.6-51.8c-6.6-3.8-6.6-13.4,0-17.2L687.9,2823
	c3.3-1.9,3.3-6.7,0-8.6L578,2750.9c-6.1-3.6-13.7-3.6-19.9,0l-300.6,173.2c-4.6,2.6-10.3,2.7-14.9,0l-34-19.5
	c-13.9-8-22.5-22.8-22.5-38.9v-39.5c0-5.3,2.9-10.3,7.5-12.9l430.9-247.6c3.3-1.9,3.3-6.7,0-8.6l-110-63.7c-6.1-3.6-13.7-3.6-19.9,0
	L201,2662.3c-6.6,3.8-14.9-1-14.9-8.6v-103.5c0-16,8.6-30.8,22.5-38.8l273.8-157.1c13.8-7.9,30.8-7.9,44.6,0l273.2,157.6
	C814.1,2520,822.7,2534.7,822.7,2550.7z"/>
</svg>
