<svg width="1280" height="720" viewBox="0 0 1280 720" fill="none" xmlns="http://www.w3.org/2000/svg">
<g clip-path="url(#clip0_5002_813)">
<rect width="1280" height="720" fill="#00F0FF"/>
<g clip-path="url(#clip1_5002_813)">
<rect x="140" y="281" width="157.733" height="157.733" rx="36.9686" fill="#001F29"/>
<path d="M205.46 304.175C199.092 304.172 192.735 304.169 186.345 304.178C182.481 304.178 181.032 309.029 183.906 311.902L227.404 355.401C228.762 356.643 229.608 357.992 229.639 359.771C229.608 361.55 228.762 362.9 227.404 364.141L183.906 407.64C181.032 410.513 182.481 415.364 186.345 415.364C192.735 415.373 199.092 415.37 205.46 415.367C208.648 415.365 211.839 415.364 215.038 415.364C219.223 415.364 221.713 413.128 223.949 410.892L263.179 371.662C266.309 368.531 269.111 364.374 269.073 359.771C269.111 355.168 266.309 351.011 263.179 347.88L223.949 308.65C221.713 306.414 219.223 304.178 215.038 304.178C211.839 304.178 208.648 304.177 205.46 304.175Z" fill="#00F0FF"/>
<path d="M1126.89 409.243C1113.05 409.243 1106.58 402.022 1106.58 389.233V354.328H1101.17C1098.91 354.328 1097.56 352.974 1097.56 350.717V343.646C1097.56 341.389 1098.91 340.035 1101.17 340.035H1106.58V322.432C1106.58 320.175 1107.94 318.821 1110.19 318.821H1121.78C1124.04 318.821 1125.39 320.175 1125.39 322.432V340.035H1136.52C1138.78 340.035 1140.13 341.389 1140.13 343.646V350.717C1140.13 352.974 1138.78 354.328 1136.52 354.328H1125.39V386.224C1125.39 394.349 1130.35 394.649 1134.72 394.649H1135.77C1138.03 394.649 1139.38 396.004 1139.38 398.26V405.633C1139.38 407.889 1138.03 409.243 1135.77 409.243H1126.89Z" fill="#001F29"/>
<path d="M1060.01 410.748C1038.8 410.748 1024.8 395.251 1024.8 374.639C1024.8 354.027 1038.34 338.681 1059.26 338.681C1079.87 338.681 1092.5 354.027 1092.5 374.639V376.143C1092.5 378.4 1091.15 379.754 1088.89 379.754H1042.86C1044.66 389.082 1051.43 394.649 1060.01 394.649C1066.93 394.649 1071.29 392.242 1074.15 389.684C1075.81 388.18 1077.31 387.879 1079.12 389.233L1086.19 394.499C1088.14 396.003 1088.59 397.508 1087.24 399.163C1081.07 406.384 1071.44 410.748 1060.01 410.748ZM1043.16 367.868H1074.9C1073.25 359.744 1068.13 353.575 1059.26 353.575C1050.68 353.575 1044.96 359.142 1043.16 367.868Z" fill="#001F29"/>
<path d="M998.427 409.244C996.17 409.244 994.816 407.889 994.816 405.633V315.06C994.816 312.803 996.17 311.449 998.427 311.449H1010.16C1012.42 311.449 1013.77 312.803 1013.77 315.06L1013.62 405.633C1013.62 407.889 1012.27 409.244 1010.01 409.244H998.427Z" fill="#001F29"/>
<path d="M965.881 409.244C963.624 409.244 962.27 407.889 962.27 405.633V315.06C962.27 312.803 963.624 311.449 965.881 311.449H977.615C979.872 311.449 981.226 312.803 981.226 315.06L981.076 405.633C981.076 407.889 979.722 409.244 977.465 409.244H965.881Z" fill="#001F29"/>
<path d="M910.012 410.447C891.056 410.447 877.215 395.251 877.215 374.639C877.215 353.726 891.056 338.982 910.012 338.982C918.737 338.982 925.206 342.141 929.87 347.407V343.646C929.87 341.389 931.224 340.035 933.481 340.035H945.065C947.322 340.035 948.676 341.389 948.676 343.646V405.633C948.676 407.889 947.322 409.243 945.065 409.243H933.481C931.224 409.243 929.87 407.889 929.87 405.633V402.022C925.206 407.287 918.737 410.447 910.012 410.447ZM912.72 392.694C923.1 392.694 929.87 385.02 929.87 374.639C929.87 364.258 923.1 356.585 912.72 356.585C902.339 356.585 895.419 364.258 895.419 374.639C895.419 385.02 902.339 392.694 912.72 392.694Z" fill="#001F29"/>
<path d="M779.056 409.244C776.95 409.244 775.446 408.19 774.844 406.234L744.605 315.511C743.853 313.104 745.056 311.449 747.614 311.449H760.702C762.808 311.449 764.313 312.502 764.915 314.458L784.623 373.737L804.181 314.458C804.782 312.502 806.136 311.449 808.243 311.449H816.216C818.322 311.449 819.827 312.502 820.429 314.458L839.535 371.329L858.491 314.458C859.093 312.502 860.597 311.449 862.703 311.449H875.792C878.35 311.449 879.553 313.104 878.801 315.511L848.562 406.234C847.96 408.19 846.455 409.244 844.349 409.244H833.969C831.862 409.244 830.358 408.19 829.756 406.234L811.703 351.62L793.65 406.234C793.048 408.19 791.543 409.244 789.437 409.244H779.056Z" fill="#001F29"/>
<path d="M697.211 409.243C683.37 409.243 676.901 402.022 676.901 389.233V354.328H671.485C669.229 354.328 667.875 352.974 667.875 350.717V343.646C667.875 341.389 669.229 340.035 671.485 340.035H676.901V322.432C676.901 320.175 678.255 318.821 680.512 318.821H692.096C694.353 318.821 695.707 320.175 695.707 322.432V340.035H706.84C709.096 340.035 710.45 341.389 710.45 343.646V350.717C710.45 352.974 709.096 354.328 706.84 354.328H695.707V386.224C695.707 394.349 700.671 394.649 705.034 394.649H706.087C708.344 394.649 709.698 396.004 709.698 398.26V405.633C709.698 407.889 708.344 409.243 706.087 409.243H697.211Z" fill="#001F29"/>
<path d="M630.327 410.748C609.114 410.748 595.123 395.251 595.123 374.639C595.123 354.027 608.663 338.681 629.575 338.681C650.186 338.681 662.823 354.027 662.823 374.639V376.143C662.823 378.4 661.469 379.754 659.212 379.754H613.176C614.982 389.082 621.752 394.649 630.327 394.649C637.247 394.649 641.61 392.242 644.469 389.684C646.124 388.18 647.628 387.879 649.433 389.233L656.504 394.499C658.46 396.003 658.911 397.508 657.557 399.163C651.389 406.384 641.761 410.748 630.327 410.748ZM613.477 367.868H645.221C643.566 359.744 638.451 353.575 629.575 353.575C620.999 353.575 615.283 359.142 613.477 367.868Z" fill="#001F29"/>
<path d="M547.073 438.732C536.091 438.732 526.763 434.971 520.294 428.953C518.489 427.298 518.79 425.492 520.595 423.837L527.365 418.12C529.02 416.616 530.675 416.766 532.48 418.12C537.294 422.032 542.56 422.935 547.073 422.935C553.542 422.935 565.277 419.324 565.277 404.429V401.871C560.613 407.137 553.994 410.447 545.268 410.447C526.312 410.447 512.622 395.251 512.622 374.639C512.622 354.027 526.312 338.982 545.268 338.982C553.994 338.982 560.613 342.141 565.277 347.558V343.646C565.277 341.389 566.631 340.035 568.888 340.035H580.472C582.729 340.035 584.083 341.389 584.083 343.646V404.429C584.083 424.289 570.994 438.732 547.073 438.732ZM547.976 392.694C558.357 392.694 565.277 385.02 565.277 374.639C565.277 364.258 558.357 356.585 547.976 356.585C537.595 356.585 530.825 364.258 530.825 374.639C530.825 385.02 537.595 392.694 547.976 392.694Z" fill="#001F29"/>
<path d="M493.943 409.243C480.102 409.243 473.633 402.022 473.633 389.233V354.328H468.217C465.96 354.328 464.606 352.974 464.606 350.717V343.646C464.606 341.389 465.96 340.035 468.217 340.035H473.633V322.432C473.633 320.175 474.987 318.821 477.244 318.821H488.828C491.085 318.821 492.439 320.175 492.439 322.432V340.035H503.571C505.828 340.035 507.182 341.389 507.182 343.646V350.717C507.182 352.974 505.828 354.328 503.571 354.328H492.439V386.224C492.439 394.349 497.403 394.649 501.766 394.649H502.819C505.076 394.649 506.43 396.004 506.43 398.26V405.633C506.43 407.889 505.076 409.243 502.819 409.243H493.943Z" fill="#001F29"/>
<path d="M445.19 329.804C440.075 329.804 434.81 325.892 434.81 319.272C434.81 312.803 440.075 309.342 445.19 309.342C450.155 309.342 455.571 312.803 455.571 319.272C455.571 325.892 450.155 329.804 445.19 329.804ZM439.323 409.243C437.066 409.243 435.712 407.889 435.712 405.632V343.646C435.712 341.389 437.066 340.035 439.323 340.035H451.058C453.314 340.035 454.668 341.389 454.668 343.646L454.518 405.632C454.518 407.889 453.164 409.243 450.907 409.243H439.323Z" fill="#001F29"/>
<path d="M350.635 409.244C348.378 409.244 347.024 407.889 347.024 405.633V315.06C347.024 312.803 348.378 311.449 350.635 311.449H392.608C407.653 311.449 421.042 321.229 421.042 338.982C421.042 348.31 417.432 354.629 411.865 358.541C419.388 362.754 424.653 370.126 424.653 380.958C424.653 398.712 410.361 409.244 395.316 409.244H350.635ZM366.431 351.018H389.449C396.52 351.018 401.033 346.806 401.033 340.035C401.033 333.265 396.52 329.203 389.449 329.203H366.431V351.018ZM366.431 391.49H392.157C399.98 391.49 404.644 386.074 404.644 379.303C404.644 372.533 399.679 367.117 392.157 367.117H366.431V391.49Z" fill="#001F29"/>
</g>
</g>
<defs>
<clipPath id="clip0_5002_813">
<rect width="1280" height="720" fill="white"/>
</clipPath>
<clipPath id="clip1_5002_813">
<rect width="1000" height="157.733" fill="white" transform="translate(140 281)"/>
</clipPath>
</defs>
</svg>
