<svg width="36" height="36" viewBox="0 0 36 36" fill="none" xmlns="http://www.w3.org/2000/svg">
<rect width="36" height="36" rx="18" fill="#001F29"/>
<path d="M15.465 6.72917C14.1765 6.72852 12.8903 6.72786 11.5973 6.72984C10.8155 6.72984 10.5223 7.71134 11.1038 8.29272L19.9053 17.0943C20.1799 17.3455 20.3512 17.6186 20.3575 17.9785C20.3512 18.3385 20.1799 18.6115 19.9053 18.8628L11.1038 27.6643C10.5223 28.2457 10.8155 29.2272 11.5973 29.2272C12.8903 29.2292 14.1765 29.2285 15.465 29.2279C16.1101 29.2275 16.7557 29.2272 17.403 29.2272C18.2499 29.2272 18.7537 28.7748 19.2061 28.3224L27.1439 20.3845C27.7774 19.751 28.3442 18.9099 28.3365 17.9785C28.3442 17.0472 27.7774 16.206 27.1439 15.5725L19.2061 7.63467C18.7537 7.18226 18.2499 6.72984 17.403 6.72984C16.7557 6.72984 16.1101 6.7295 15.465 6.72917Z" fill="#00F0FF"/>
</svg>
