<svg width="1280" height="720" viewBox="0 0 1280 720" fill="none" xmlns="http://www.w3.org/2000/svg">
<g clip-path="url(#clip0_2029_2)">
<rect width="1280" height="720" fill="#54FFF5"/>
<g filter="url(#filter0_f_2029_2)">
<path d="M258.79 569.269C74.5402 850.699 1060.13 771.213 1575.95 696.291C2103.88 601.173 1738.99 181.889 1360.35 172.61C981.714 163.331 1407.3 366.485 1085.67 424.509C764.035 482.533 489.102 217.481 258.79 569.269Z" fill="white"/>
<path d="M568.818 -1.89179C472.167 -145.259 127.948 49.1126 -32.0804 164.219C-184.728 289.43 213.721 397.629 370.008 338.944C526.295 280.258 234.23 268.839 327.182 192.527C420.135 116.214 689.631 177.317 568.818 -1.89179Z" fill="#00FFF0" fill-opacity="0.67"/>
<path d="M616.024 631.938C484.193 391.114 -83.6528 517.938 -351.097 611.453C-608.355 722.179 2.47484 1040.69 256.173 1024.4C509.87 1008.1 52.6574 869.448 209.321 801.928C365.984 734.409 780.813 932.969 616.024 631.938Z" fill="#9D81FF"/>
<path d="M1415.03 -145.67C1130.65 -329.52 723.552 -177.489 555.551 -78.493C408.542 33.5768 1166.06 238.919 1376.3 203.728C1586.54 168.538 1089.61 95.7205 1179.07 27.4002C1268.53 -40.9202 1770.51 84.1413 1415.03 -145.67Z" fill="#4D94FF"/>
</g>
<path d="M156.482 387.095H204.094L149.934 332.784L204.79 278.472L219.731 264H170.311L107.372 327.03C104.196 330.207 104.212 335.348 107.405 338.508L156.482 387.095Z" fill="black"/>
<path fill-rule="evenodd" clip-rule="evenodd" d="M393.261 357.52C397.407 355.174 400.729 352.252 403.147 348.808C405.903 344.886 407.303 340.407 407.303 335.501C407.303 326.318 403.857 319.15 397.067 314.193C390.358 309.294 381.126 306.812 369.621 306.812H328.017V413.187H371.283C383.4 413.187 393.102 410.381 400.117 404.84C407.187 399.254 410.777 391.43 410.777 381.583C410.777 375.588 409.089 370.43 405.764 366.255C402.781 362.523 398.582 359.587 393.264 357.52H393.261ZM350.532 325.984H367.811C373.231 325.984 377.323 327.031 379.981 329.09C382.607 331.122 383.882 333.794 383.882 337.252C383.882 340.711 382.607 343.518 379.981 345.559C377.323 347.618 373.231 348.664 367.811 348.664H350.532V325.984ZM383.062 390.41C380.067 392.802 375.493 394.012 369.471 394.012H350.532V367.98H369.471C375.49 367.98 380.07 369.15 383.077 371.447C386.058 373.739 387.507 376.764 387.507 380.706C387.507 384.852 386.052 388.026 383.062 390.412V390.41Z" fill="black"/>
<path d="M441.183 333.643H418.518V413.183H441.183V333.643Z" fill="black"/>
<path fill-rule="evenodd" clip-rule="evenodd" d="M665.044 345.608C661.457 341.353 656.961 338.017 651.68 335.691C646.405 333.368 640.472 332.184 634.054 332.184C626.187 332.184 619.091 333.963 612.956 337.471C606.807 340.99 601.927 345.878 598.447 352.008C594.967 358.132 593.204 365.24 593.204 373.127C593.204 381.013 594.915 388.59 598.288 394.809C601.67 401.048 606.533 405.942 612.737 409.366C618.93 412.77 626.205 414.498 634.357 414.498C644.365 414.498 652.86 411.991 659.613 407.043C666.117 402.281 670.59 395.565 673.026 387.158H650.208C649.008 390.019 647.317 392.454 644.896 394.17C642.033 396.195 638.336 397.221 633.904 397.221C630.06 397.221 626.767 396.29 624.115 394.455C621.452 392.621 619.417 389.909 618.081 386.387C617.279 384.294 616.711 381.888 616.376 379.211H673.424L673.536 378.503C674.555 372.089 674.298 366.011 672.763 360.438C671.225 354.852 668.628 349.863 665.044 345.608ZM616.737 364.484C617.086 362.865 617.556 361.18 618.154 359.645C619.544 356.077 621.553 353.331 624.127 351.496C626.69 349.662 629.878 348.736 633.607 348.736C638.279 348.736 642.114 350.246 645.005 353.216C647.747 356.042 649.302 359.904 649.634 364.484H616.737Z" fill="black"/>
<path d="M441.661 306.812H418.05V325.984H441.661V306.812Z" fill="black"/>
<path fill-rule="evenodd" clip-rule="evenodd" d="M565.774 342.67C563.093 339.461 559.951 336.974 556.407 335.254C552.176 333.216 547.227 332.184 541.695 332.184C534.923 332.184 528.851 333.848 523.657 337.126C518.468 340.401 514.353 345.03 511.43 350.875C508.518 356.706 507.038 363.552 507.038 371.232C507.038 378.912 508.593 385.355 511.664 391.226C514.74 397.118 519.005 401.81 524.338 405.18C529.682 408.558 535.777 410.272 542.454 410.272C547.496 410.272 552.101 409.185 556.136 407.037C559.33 405.338 562.005 403.089 564.115 400.344V409.004C564.115 414.372 562.698 418.492 559.913 421.238C557.12 423.984 552.872 425.369 547.285 425.369C542.472 425.369 538.686 424.283 536.036 422.135C533.869 420.378 531.976 418.072 531.535 413.19H509.684C509.886 420.022 511.9 424.625 514.743 428.659C517.931 433.179 522.416 436.712 528.083 439.153C533.696 441.566 540.209 442.79 547.438 442.79C559.572 442.79 569.234 439.751 576.145 433.765C583.1 427.744 586.626 419.314 586.626 408.713V333.644H565.774V342.67ZM561.783 381.798C560.346 384.754 558.317 387.072 555.746 388.676C553.178 390.28 550.078 391.097 546.529 391.097C541.398 391.097 537.41 389.357 534.328 385.775C531.258 382.212 529.702 377.319 529.702 371.229C529.702 365.139 531.258 360.246 534.328 356.678C537.37 353.144 541.476 351.356 546.529 351.356C551.582 351.356 556.046 353.17 559.186 356.758C562.354 360.375 563.962 365.295 563.962 371.37C563.962 375.306 563.229 378.811 561.783 381.796V381.798Z" fill="black"/>
<path d="M728.414 352.669V333.647H712.055V306.812H689.54V333.647H675.568V352.669H689.54V383.808C689.54 401.12 692.963 413.843 714.297 413.449L727.69 413.187V395.352H721.044C712.048 395.352 712.062 390.394 712.087 381.151V381.123C712.088 380.632 712.089 380.128 712.089 379.613L712.052 352.669H728.414Z" fill="black"/>
<path d="M501.533 352.669V333.647H485.173V306.812H462.659V333.647H448.686V352.669H462.659V383.808C462.659 401.12 466.081 413.843 487.416 413.449L500.808 413.187V395.352H494.162C485.167 395.352 485.18 390.394 485.205 381.151L485.205 381.123C485.207 380.632 485.208 380.128 485.208 379.613L485.171 352.669H501.533Z" fill="black"/>
<path d="M1000.81 306.812H978.142V413.182H1000.81V306.812Z" fill="black"/>
<path fill-rule="evenodd" clip-rule="evenodd" d="M830.229 352.508L846.54 413.204H874.162L903.926 306.834H877.902L861.91 375.957L860.501 382.656L859.087 375.938L840.753 306.834H818.616L800.135 375.937L798.721 382.656L797.312 375.957L781.32 306.834H753.994L783.758 413.204H811.671L827.834 352.514L829.068 346.991L830.229 352.508ZM860.502 388.592L860.504 388.6L863.108 376.22L878.879 308.055L878.875 308.054L863.105 376.22L860.502 388.592ZM847.482 411.984L831.423 352.225L829.108 341.22L829.106 341.227L831.42 352.224L847.479 411.984L847.482 411.984ZM819.559 308.055L801.329 376.22L798.724 388.6L798.723 388.592L801.326 376.22L819.556 308.054L819.559 308.055ZM755.609 308.055L784.69 411.984H784.687L755.606 308.054L755.609 308.055Z" fill="black"/>
<path fill-rule="evenodd" clip-rule="evenodd" d="M897.204 360.295H920.004C921.047 354.24 925.219 350.059 932.968 350.059C941.76 350.059 946.082 354.528 946.082 363.034V364.763C933.713 364.908 923.729 365.917 913.298 369.232C900.631 373.557 894.372 381.63 894.372 392.154C894.372 407.002 905.698 414.498 920.898 414.498C930.435 414.498 939.972 410.894 946.231 402.533C946.38 406.281 946.827 409.597 947.572 412.192H971.117C969.776 408.155 968.882 402.966 968.882 392.874V363.178C968.882 345.158 956.96 332.184 934.011 332.184C913.447 332.184 899.588 342.851 897.204 360.295ZM927.902 399.217C921.196 399.217 917.172 395.902 917.172 390.712C917.172 383.504 922.984 378.026 946.082 377.594V380.621C946.082 391.289 938.035 399.217 927.902 399.217Z" fill="black"/>
<path d="M1032.76 306.812H1010.1V413.182H1032.76V306.812Z" fill="black"/>
<path fill-rule="evenodd" clip-rule="evenodd" d="M1111.63 345.608C1108.04 341.353 1103.55 338.017 1098.27 335.691C1092.99 333.368 1087.06 332.184 1080.64 332.184C1072.77 332.184 1065.68 333.963 1059.54 337.471C1053.39 340.99 1048.51 345.878 1045.03 352.008C1041.55 358.132 1039.79 365.24 1039.79 373.127C1039.79 381.013 1041.5 388.59 1044.87 394.809C1048.26 401.048 1053.12 405.942 1059.32 409.366C1065.52 412.77 1072.79 414.498 1080.94 414.498C1090.95 414.498 1099.45 411.991 1106.2 407.043C1112.7 402.281 1117.18 395.565 1119.61 387.158H1096.79C1095.59 390.019 1093.9 392.454 1091.48 394.17C1088.62 396.195 1084.92 397.221 1080.49 397.221C1076.65 397.221 1073.35 396.29 1070.7 394.455C1068.04 392.621 1066 389.909 1064.67 386.387C1063.86 384.294 1063.3 381.888 1062.96 379.211H1120.01L1120.12 378.503C1121.14 372.089 1120.88 366.011 1119.35 360.438C1117.81 354.852 1115.21 349.863 1111.63 345.608ZM1063.32 364.484C1063.67 362.865 1064.14 361.18 1064.74 359.645C1066.13 356.077 1068.14 353.331 1070.71 351.496C1073.28 349.662 1076.46 348.736 1080.19 348.736C1084.86 348.736 1088.7 350.246 1091.59 353.216C1094.33 356.042 1095.89 359.904 1096.22 364.484H1063.32Z" fill="black"/>
<path d="M1175 352.669V333.647H1158.64V306.812H1136.13V333.647H1122.15V352.669H1136.13V383.808C1136.13 401.12 1139.55 413.843 1160.88 413.449L1174.28 413.187V395.352H1167.63C1158.63 395.352 1158.65 390.394 1158.67 381.151V381.123L1158.67 380.938L1158.67 380.843L1158.67 380.246C1158.68 380.037 1158.68 379.826 1158.68 379.613L1158.64 352.669H1175Z" fill="black"/>
<path d="M184.739 332.908H185.105L239.261 387.215L184.405 441.527L169.464 455.999H218.884L281.823 392.973C284.999 389.796 284.983 384.655 281.79 381.495L232.713 332.908H185.105L185.101 332.904L184.739 332.908Z" fill="black"/>
</g>
<defs>
<filter id="filter0_f_2029_2" x="-802.239" y="-621.177" width="3031.42" height="2035.35" filterUnits="userSpaceOnUse" color-interpolation-filters="sRGB">
<feFlood flood-opacity="0" result="BackgroundImageFix"/>
<feBlend mode="normal" in="SourceGraphic" in2="BackgroundImageFix" result="shape"/>
<feGaussianBlur stdDeviation="194.588" result="effect1_foregroundBlur_2029_2"/>
</filter>
<clipPath id="clip0_2029_2">
<rect width="1280" height="720" fill="white"/>
</clipPath>
</defs>
</svg>
