<svg width="256" height="256" viewBox="0 0 256 256" fill="none" xmlns="http://www.w3.org/2000/svg">
<rect width="256" height="256" rx="60" fill="#001F29"/>
<path d="M106.379 37.6134C96.0442 37.6081 85.7271 37.6029 75.3562 37.6187C69.0853 37.6187 66.7332 45.4915 71.397 50.1548L141.995 120.753C144.198 122.768 145.572 124.958 145.622 127.846C145.572 130.733 144.198 132.923 141.995 134.938L71.397 205.536C66.7332 210.2 69.0853 218.072 75.3562 218.072C85.7271 218.088 96.0442 218.083 106.379 218.078C111.553 218.075 116.732 218.072 121.924 218.072C128.717 218.072 132.758 214.444 136.387 210.815L200.057 147.145C205.138 142.063 209.685 135.316 209.623 127.846C209.685 120.375 205.138 113.628 200.057 108.547L136.387 44.8765C132.758 41.2477 128.717 37.6187 121.924 37.6187C116.732 37.6187 111.553 37.6161 106.379 37.6134Z" fill="#00F0FF"/>
</svg>
